<svg xmlns="http://www.w3.org/2000/svg" viewBox="0 0 103.4 101.57"><defs><style>.cls-1{fill:#4352a3;}.cls-2{fill:#6ec280;}.cls-3{fill:#84d0eb;}</style></defs><g id="Layer_2" data-name="Layer 2"><g id="Layer_1-2" data-name="Layer 1"><path class="cls-1" d="M101.55,40.26V61.31a7.15,7.15,0,0,1-7.15,7.15H68.45V94.4a7.16,7.16,0,0,1-7.16,7.17h-21a7.16,7.16,0,0,1-7.15-7.17V68.46H7.16A7.16,7.16,0,0,1,0,61.31V40.26a7.16,7.16,0,0,1,7.16-7.15h26V7.16A7.16,7.16,0,0,1,40.26,0h21a7.16,7.16,0,0,1,7.16,7.16v26h26A7.15,7.15,0,0,1,101.55,40.26Z"/><circle class="cls-2" cx="90.7" cy="16.98" r="12.7"/><path class="cls-3" d="M70.87,28.14c-25.95,0-37.76,23-37.76,41.77V85.14c3.4-22.77,23.46-27.43,38.83-30.27C89.33,51.65,93.91,28.14,70.87,28.14Z"/></g></g></svg>